<?xml version="1.0" encoding="iso-8859-1"?>
<!-- Uploaded to: SVG Repo, www.svgrepo.com, Generator: SVG Repo Mixer Tools -->
<svg version="1.1" id="Layer_1" xmlns="http://www.w3.org/2000/svg" xmlns:xlink="http://www.w3.org/1999/xlink" 
	 viewBox="0 0 512 512" xml:space="preserve">
<circle style="fill:#E6E5E5;" cx="256" cy="256" r="256"/>
<path style="fill:#232323;" d="M64,353.176V120.672c0-4.128,3.528-7.504,7.832-7.504H440.16c4.304,0,7.832,3.376,7.832,7.504
	v232.496H64V353.176z"/>
<path style="fill:#636363;" d="M448,353.176v32c0,4.4-3.528,8-7.832,8H71.832c-4.304,0-7.832-3.6-7.832-8v-32H448L448,353.176z"/>
<polygon style="fill:#AAAAAA;" points="200,449.176 312,449.176 304,393.176 208,393.176 "/>
<g>
	<polygon style="fill:#636363;" points="304,393.176 208,393.176 203.016,428.08 305.864,406.224 	"/>
	<rect x="172" y="449.2" style="fill:#636363;" width="168" height="8"/>
</g>
<polygon style="fill:#333333;" points="208,393.176 304,393.176 304.544,396.96 205.512,410.624 "/>
<g>
	<circle style="fill:#E6E5E5;" cx="112" cy="145.2" r="8"/>
	<circle style="fill:#E6E5E5;" cx="176" cy="145.2" r="8"/>
	<circle style="fill:#E6E5E5;" cx="144" cy="145.2" r="8"/>
	<rect x="200" y="141.184" style="fill:#E6E5E5;" width="208" height="8"/>
</g>
<rect x="181.296" y="276.072" style="fill:#DB2B42;" width="19.92" height="43.696"/>
<rect x="213.672" y="251.096" style="fill:#8AD5DD;" width="19.92" height="68.672"/>
<rect x="246.04" y="223.008" style="fill:#DB2B42;" width="19.92" height="96.72"/>
<rect x="278.408" y="194.92" style="fill:#8AD5DD;" width="19.92" height="124.848"/>
<rect x="310.784" y="176.16" style="fill:#DB2B42;" width="19.92" height="143.576"/>
</svg>